<svg width="60" height="60" xmlns="http://www.w3.org/2000/svg">

 <g>
  <title>background</title>
  <rect fill="none" id="canvas_background" height="402" width="582" y="-1" x="-1"/>
 </g>
 <g>
  <title>Layer 1</title>
  <path stroke="null" id="svg_3" d="m31.040027,31.282157c-0.341674,0.341674 -0.79023,0.513387 -1.238787,0.513387s-0.897113,-0.171713 -1.238787,-0.513387c-0.6851,-0.6851 -0.6851,-1.792474 0,-2.477573l21.001552,-21.001552c-5.456268,-4.860529 -12.394875,-7.546612 -19.762765,-7.546612c-7.95662,0 -15.436649,3.099595 -21.062878,8.724072c-5.624477,5.626229 -8.724072,13.106258 -8.724072,21.062879s3.099595,15.436649 8.724072,21.062879c5.626229,5.624477 13.106258,8.724072 21.062878,8.724072s15.436649,-3.099595 21.062878,-8.724072c5.626229,-5.626229 8.724072,-13.106258 8.724072,-21.062879c0,-7.36789 -2.686082,-14.306497 -7.546611,-19.762766l-21.001552,21.001552z"/>
 </g>
</svg>