<svg width="321.145" height="321.145" xmlns="http://www.w3.org/2000/svg">

 <g>
  <title>background</title>
  <rect fill="none" id="canvas_background" height="402" width="582" y="-1" x="-1"/>
 </g>
 <g>
  <title>Layer 1</title>
  <g id="svg_1">
   <g id="svg_2">
    <path fill="#ff0000" id="svg_3" d="m320.973,200.981c-0.8,-18.4 -4,-38.8 -8.8,-58c-4.8,-18.4 -10.8,-35.6 -18,-48.8c-28,-49.2 -58.4,-41.6 -94.8,-32c-11.6,2.8 -24,6 -36.8,7.2l-4,0c-12.8,-1.2 -25.2,-4.4 -36.8,-7.2c-36.4,-9.2 -66.8,-17.2 -94.8,32.4c-7.2,13.2 -13.6,30.4 -18,48.8c-4.8,19.2 -8,39.6 -8.8,58c-0.8,20.4 1.2,35.2 5.6,45.6c4.4,9.6 10.8,15.6 19.2,18c7.6,2 16.4,1.2 25.6,-2.8c15.6,-6.4 33.6,-20 51.2,-36.4c12.4,-12 35.6,-18 58.8,-18s46.4,6 58.8,18c17.6,16.4 35.6,30 51.2,36.4c9.2,3.6 18,4.8 25.6,2.8c8,-2.4 14.8,-8 19.2,-18.4c4.4,-10 6.4,-24.8 5.6,-45.6zm-19.2,40c-2.4,5.6 -5.6,8.8 -9.6,10c-4.4,1.2 -10,0.4 -16.4,-2c-14,-5.6 -30.4,-18 -46.4,-33.2c-15.2,-15.2 -42,-22.8 -68.8,-22.8s-53.6,7.6 -69.2,22c-16.4,15.2 -32.8,28 -46.4,33.2c-6.4,2.4 -12,3.6 -16.4,2c-4,-1.2 -7.2,-4.4 -9.6,-10c-3.2,-7.6 -4.8,-20 -4,-38.4c0.8,-17.2 3.6,-36.8 8.4,-55.2c4.4,-17.2 10,-33.2 16.8,-45.2c22,-39.6 47.6,-33.2 78,-25.2c12.4,3.2 25.2,6.4 39.2,7.6c0.4,0 0.4,0 0.8,0l4.4,0c0.4,0 0.4,0 0.8,0c14.4,-1.2 27.2,-4.4 39.6,-7.6c30.4,-7.6 56,-14.4 78,25.2c6.8,12 12.4,27.6 16.8,45.2c4.4,18.4 7.6,37.6 8.4,55.2c0.8,18.4 -0.8,30.8 -4.4,39.2z"/>
   </g>
  </g>
  <g id="svg_4">
   <g id="svg_5">
    <path fill="#ff0000" id="svg_6" d="m123.773,122.981c-4,-3.6 -8.8,-6.4 -14.4,-6.8c-0.4,-5.2 -2.8,-10.4 -6.4,-14l-0.4,-0.4c-4.4,-4.4 -10,-6.8 -16.4,-6.8c-6.4,0 -12.4,2.8 -16.4,6.8c-3.6,3.6 -6.4,8.8 -6.8,14.4c-5.6,0.4 -10.4,2.8 -14.4,6.4l-0.4,0.4c-4.4,4.4 -6.8,10 -6.8,16.4c0,6.4 2.8,12.4 6.8,16.4c4,4 8.8,6.4 14.8,6.8c0.4,5.6 2.8,10.8 6.8,14.4c4.4,4.4 10,6.8 16.4,6.8c6.4,0 12.4,-2.8 16.4,-6.8c3.6,-4 6.4,-8.8 6.8,-14.4c5.6,-0.4 10.8,-2.8 14.4,-6.8c4.4,-4.4 6.8,-10 6.8,-16.4c0,-6.4 -2.8,-12.4 -6.8,-16.4zm-10,22.4c-1.6,1.6 -3.6,2.4 -6,2.4l-5.6,0c-4,0 -7.6,3.2 -7.6,7.6l0,5.2c0,2.4 -0.8,4.4 -2.4,6c-1.6,1.6 -3.6,2.4 -6,2.4c-2.4,0 -4.4,-0.8 -6,-2.4c-1.6,-1.6 -2.4,-3.6 -2.4,-6l0,-5.6c0,-4 -3.2,-7.6 -7.6,-7.6l-5.6,0c-2.4,0 -4.4,-0.8 -6,-2.4c-1.2,-1.2 -2.4,-3.2 -2.4,-5.6c0,-2.4 0.8,-4.4 2.4,-6c0,0 0,0 0.4,-0.4c1.6,-1.2 3.6,-2 5.6,-2l5.6,0c4,0 7.6,-3.2 7.6,-7.6l0,-5.6c0,-2.4 0.8,-4.4 2.4,-6c1.6,-1.6 3.6,-2.4 6,-2.4c2.4,0 4.4,0.8 6,2.4c0,0 0,0 0.4,0.4c1.2,1.6 2,3.6 2,5.6l0,5.6c0,4 3.2,7.6 7.6,7.6l5.6,0c2.4,0 4.4,0.8 6,2.4c1.6,1.6 2.4,3.6 2.4,6c0,2.4 -0.8,4.4 -2.4,6z"/>
   </g>
  </g>
  <g id="svg_7">
   <g id="svg_8">
    <circle fill="#ff0000" id="svg_9" r="14" cy="110.981" cx="230.173"/>
   </g>
  </g>
  <g id="svg_10">
   <g id="svg_11">
    <circle fill="#ff0000" id="svg_12" r="14" cy="167.781" cx="230.173"/>
   </g>
  </g>
  <g id="svg_13">
   <g id="svg_14">
    <circle fill="#ff0000" id="svg_15" r="14" cy="139.381" cx="201.773"/>
   </g>
  </g>
  <g id="svg_16">
   <g id="svg_17">
    <circle fill="#ff0000" id="svg_18" r="14" cy="139.381" cx="258.573"/>
   </g>
  </g>
  <g id="svg_19"/>
  <g id="svg_20"/>
  <g id="svg_21"/>
  <g id="svg_22"/>
  <g id="svg_23"/>
  <g id="svg_24"/>
  <g id="svg_25"/>
  <g id="svg_26"/>
  <g id="svg_27"/>
  <g id="svg_28"/>
  <g id="svg_29"/>
  <g id="svg_30"/>
  <g id="svg_31"/>
  <g id="svg_32"/>
  <g id="svg_33"/>
 </g>
</svg>