<?xml version="1.0" ?><svg id="Layer_1" style="enable-background:new 0 0 256 256;" version="1.1" viewBox="0 0 256 256" xml:space="preserve" xmlns="http://www.w3.org/2000/svg" xmlns:xlink="http://www.w3.org/1999/xlink"><g><path d="M220.6,207.4l-31.6-38.7c14.8-24.3,18.4-53.8,9.8-81.4c-0.8-2.6-3.6-4-6.2-3.2c-2.6,0.8-4.1,3.6-3.2,6.2   c8.1,25.8,4.3,53.4-10.5,75.9l-0.3,0.4c-1,1.8-0.9,4,0.4,5.6l33.9,41.4c0,0,0.5,0.6,0.6,0.6c2.8,3.2,2.8,7.7,0.1,11   c-0.1,0.1-0.1,0.2-0.2,0.2l-0.7,0.7c-3.2,2.7-7.9,2.7-11.2-0.2c-0.2-0.2-0.3-0.3-0.5-0.5l-41.4-33.8c-1.7-1.4-4.1-1.5-5.9-0.3   l-0.4,0.3c-34.9,22.8-81.6,18.2-111.4-11c-0.2-0.3-0.3-0.6-0.5-0.8C6.6,145.2,6.6,88.7,41.3,54C76,19.3,132.5,19.3,167.2,54   c0.2,0.2,0.5,0.4,0.8,0.5c0.1,0.1,0.3,0.3,0.4,0.4c1.7,2.1,4.9,2.4,7,0.6c2.1-1.7,2.4-4.9,0.6-7c-0.4-0.5-1-1.1-1.6-1.7   C135.9,8.4,73.2,8.1,34.4,46.5c-0.1,0.1-0.3,0.2-0.4,0.4C18,62.9,8,84.2,5.7,106.7c-1,9.8-0.5,19.6,1.3,29.1   c3.8,19.5,13.2,37.2,27.3,51.3c32.3,32.2,83,38.1,121.8,14.5l38.4,31.4c0.2,0.2,0.5,0.5,0.7,0.7c3.5,3,7.7,4.4,11.9,4.4   c4.3,0,8.6-1.5,12.1-4.5l1.7-1.6c0.3-0.3,0.5-0.6,0.7-1c5.3-6.9,5.1-16.5-0.6-23.2C220.9,207.7,220.7,207.5,220.6,207.4z"/><path d="M249.8,20.9c-1-1.4-2.7-2.2-4.5-2l-32.1,3.4c-1.8,0.2-3.3,1.3-4,2.9c-0.7,1.6-0.5,3.5,0.5,4.9l7.1,9.7L104,121.1   c-1.2,0.8-1.9,2.2-2,3.6l-3,38.5l-48.8-47.7c-1-1-2.4-1.5-3.8-1.4l-14.3,1c-2.7,0.2-4.8,2.5-4.6,5.3c0.2,2.7,2.6,4.8,5.3,4.6   l12.1-0.8l54.8,53.5c0.9,0.9,2.2,1.4,3.5,1.4c0.6,0,1.2-0.1,1.7-0.3c1.8-0.7,3-2.3,3.2-4.2l3.7-46.7l111.1-79.9l6.1,8.4   c0.9,1.3,2.4,2,4,2c0.2,0,0.4,0,0.5,0c1.8-0.2,3.3-1.3,4-2.9l13-29.5C251.1,24.2,250.9,22.4,249.8,20.9z M231.8,43.5l-8.9-12.2   l15-1.6L231.8,43.5z"/></g></svg>