<?xml version="1.0" encoding="iso-8859-1"?>
<!-- Generator: Adobe Illustrator 19.0.0, SVG Export Plug-In . SVG Version: 6.00 Build 0)  -->
<svg version="1.1" id="Capa_1" xmlns="http://www.w3.org/2000/svg" xmlns:xlink="http://www.w3.org/1999/xlink" x="0px" y="0px"
	 viewBox="0 0 512 512" style="enable-background:new 0 0 512 512;" xml:space="preserve">
<g transform="matrix(1.25 0 0 -1.25 0 45)">
	<g>
		<g>
			<path style="fill:#3B88C3;" d="M409.6-328.089c0-25.134-20.378-45.511-45.511-45.511H45.511C20.378-373.6,0-353.222,0-328.089
				V-9.511C0,15.622,20.378,36,45.511,36h318.578C389.222,36,409.6,15.622,409.6-9.511V-328.089z"/>
			<path style="fill:#FFFFFF;" d="M274.432-73.818c0-13.756-9.17-26.101-23.62-26.101c-14.473,0-25.759,10.581-46.933,10.581
				c-15.167,0-28.922-8.112-28.922-22.938c0-36.329,117.828-13.05,117.828-104.061c0-50.449-41.631-81.852-90.317-81.852
				c-27.159,0-85.72,6.349-85.72,39.515c0,13.756,9.17,25.042,23.632,25.042c16.577,0,36.341-13.756,59.267-13.756
				c23.29,0,35.988,13.062,35.988,30.345c0,41.62-117.828,16.577-117.828,98.429c0,49.38,40.562,80.077,87.484,80.077
				C225.052-38.536,274.432-45.954,274.432-73.818"/>
		</g>
	</g>
</g>
<g>
</g>
<g>
</g>
<g>
</g>
<g>
</g>
<g>
</g>
<g>
</g>
<g>
</g>
<g>
</g>
<g>
</g>
<g>
</g>
<g>
</g>
<g>
</g>
<g>
</g>
<g>
</g>
<g>
</g>
</svg>
