<?xml version="1.0" encoding="iso-8859-1"?>
<!-- Generator: Adobe Illustrator 18.1.1, SVG Export Plug-In . SVG Version: 6.00 Build 0)  -->
<svg version="1.1" id="Capa_1" xmlns="http://www.w3.org/2000/svg" xmlns:xlink="http://www.w3.org/1999/xlink" x="0px" y="0px"
	 viewBox="0 0 583.851 583.851" style="enable-background:new 0 0 583.851 583.851;" xml:space="preserve">
<g>
	<g>
		<path style="fill:#010002;" d="M579.871,249.696c-2.653-2.856-6.021-4.488-10.101-4.896l-74.053-7.344
			c-4.896-17.544-12.036-34.476-21.42-50.796l47.124-57.528c2.857-3.264,4.182-6.834,3.979-10.71
			c-0.202-3.876-1.733-7.242-4.591-10.098l-45.288-45.288c-2.854-2.856-6.526-4.284-11.016-4.284c-3.672,0-6.937,1.224-9.792,3.672
			l-57.528,47.124c-16.317-9.384-33.252-16.524-50.796-21.42l-7.344-74.052c-0.408-4.08-2.04-7.446-4.896-10.098
			C331.295,1.326,327.827,0,323.747,0H260.1c-4.08,0-7.548,1.326-10.404,3.978s-4.488,6.018-4.896,10.098l-7.344,74.052
			c-17.544,4.896-34.476,12.036-50.796,21.42l-57.528-47.124c-3.264-2.448-6.528-3.672-9.792-3.672
			c-4.488,0-8.16,1.428-11.016,4.284l-45.288,45.288c-2.856,2.856-4.386,6.222-4.59,10.098s1.122,7.446,3.978,10.71l47.124,57.529
			c-9.384,16.32-16.524,33.252-21.42,50.796l-74.052,7.344c-4.08,0.408-7.446,2.04-10.098,4.896C1.326,252.553,0,256.021,0,260.101
			v63.648c0,4.08,1.326,7.548,3.978,10.402c2.652,2.855,6.018,4.487,10.098,4.896l74.052,7.344
			c4.896,17.544,12.036,34.479,21.42,50.796l-47.124,57.528c-2.856,3.264-4.182,6.834-3.978,10.71s1.734,7.243,4.59,10.098
			l45.288,45.288c2.856,2.856,6.528,4.284,11.016,4.284c3.264,0,6.528-1.224,9.792-3.672l57.529-47.124
			c16.32,9.384,33.252,16.524,50.796,21.42l7.344,74.052c0.408,4.08,2.04,7.447,4.896,10.101c2.856,2.65,6.324,3.978,10.404,3.978
			h63.648c4.08,0,7.548-1.327,10.403-3.978c2.854-2.653,4.486-6.021,4.896-10.101l7.344-74.052
			c17.544-4.896,34.479-12.036,50.796-21.42l57.528,47.124c2.856,2.448,6.12,3.672,9.792,3.672c4.489,0,8.161-1.428,11.016-4.284
			l45.288-45.289c2.857-2.854,4.389-6.222,4.591-10.098c0.203-3.876-1.121-7.446-3.979-10.71L474.3,397.187
			c9.384-16.317,16.524-33.252,21.42-50.796l74.052-7.344c4.08-0.408,7.447-2.04,10.101-4.896c2.65-2.854,3.978-6.321,3.978-10.401
			v-63.648C583.849,256.02,582.521,252.552,579.871,249.696z M371.482,325.585c-4.485,10.605-10.605,19.788-18.357,27.54
			s-16.935,13.872-27.54,18.357c-10.608,4.488-21.828,6.732-33.66,6.732s-23.052-2.244-33.66-6.732
			c-10.608-4.485-19.788-10.605-27.54-18.357s-13.872-16.935-18.36-27.54c-4.488-10.608-6.732-21.828-6.732-33.66
			s2.244-23.052,6.732-33.66c4.488-10.608,10.608-19.788,18.36-27.54s16.932-13.872,27.54-18.36
			c10.608-4.488,21.828-6.732,33.66-6.732s23.052,2.244,33.66,6.732c10.605,4.488,19.788,10.608,27.54,18.36
			s13.872,16.932,18.357,27.54c4.488,10.608,6.732,21.828,6.732,33.66S375.971,314.977,371.482,325.585z"/>
	</g>
</g>
<g>
</g>
<g>
</g>
<g>
</g>
<g>
</g>
<g>
</g>
<g>
</g>
<g>
</g>
<g>
</g>
<g>
</g>
<g>
</g>
<g>
</g>
<g>
</g>
<g>
</g>
<g>
</g>
<g>
</g>
</svg>
